<?xml version="1.0" encoding="UTF-8"?>
<svg width="211.66" height="211.66" version="1.0" xmlns="http://www.w3.org/2000/svg">
 <g transform="translate(-34.777,-129.8)">
  <g transform="matrix(.87464 0 0 .87464 14.731 23.409)" fill="#1793d1">
   <path d="m143.89 121.65c-10.773 26.408-17.271 43.681-29.266 69.304 7.3541 7.7938 16.381 16.87 31.04 27.121-15.76-6.484-26.512-12.993-34.544-19.748-15.35 32.025-39.4 77.644-88.206 165.31 38.36-22.142 68.095-35.791 95.807-41-1.19-5.117-1.8665-10.652-1.8206-16.427l0.0455-1.2286c0.60867-24.57 13.393-43.465 28.537-42.183 15.144 1.2829 26.915 22.254 26.306 46.824-0.11452 4.6234-0.63609 9.0711-1.5475 13.196 27.411 5.361 56.828 18.977 94.669 40.818-7.4614-13.735-14.121-26.114-20.481-37.905-10.018-7.7631-20.467-17.866-41.781-28.805 14.651 3.806 25.14 8.1972 33.316 13.105-64.664-120.37-69.9-136.36-92.074-188.39z" fill-rule="evenodd" stroke-width="1.2737"/>
  </g>
 </g>
</svg>
