<?xml version="1.0" encoding="UTF-8"?>
<!-- Created with Inkscape (http://www.inkscape.org/) -->
<svg width="404.02mm" height="244.58mm" version="1.1" viewBox="0 0 404.02 244.58" xmlns="http://www.w3.org/2000/svg">
 <rect width="404.02" height="244.58" fill="#fff" fill-rule="evenodd" stop-color="#000000" style="-inkscape-stroke:none;font-variation-settings:normal"/>
 <g fill="none" stroke="#000">
  <g>
   <path d="m0.025781 2.6061h400.01" stroke-width="5.1881"/>
   <path d="m2.0422 42.393h400.01" stroke-width="5.1882"/>
   <g stroke-width="5.1881">
    <path d="m2.0422 82.768h400.01"/>
    <path d="m2.0422 163.52h400.01"/>
    <path d="m2.0422 203.89h400.01"/>
    <path d="m2.0422 244.27h400.01"/>
   </g>
   <path d="m2.0258 2.6799e-4v246.28" stroke-width="4.0516"/>
   <g stroke-width="4.0187">
    <path d="m42.026 2.019v242.25"/>
    <path d="m82.027 2.019v242.25"/>
    <path d="m162.03 2.019v242.25"/>
    <path d="m202.03 2.019v242.25"/>
    <path d="m242.03 2.6799e-4v246.28"/>
    <path d="m322.03 0v246.28"/>
    <path d="m362.03 0v246.28"/>
    <path d="m402.03 0v246.28"/>
   </g>
  </g>
  <g stroke-width=".34047">
   <path d="m118.51 22.602v-0.79246h0.61759v0.79246zm3.2298 0v-0.79246h0.61758v0.79246zm3.2298 0v-0.79246h0.61759v0.79246z" style="white-space:pre" aria-label="..."/>
   <path d="m118.51 62.977v-0.79246h0.61759v0.79246zm3.2298 0v-0.79246h0.61759v0.79246zm3.2298 0v-0.79246h0.6176v0.79246z" style="white-space:pre" aria-label="..."/>
   <path d="m178.51 123.54v-0.79247h0.61757v0.79247zm3.2298 0v-0.79247h0.61757v0.79247zm3.2298 0v-0.79247h0.61759v0.79247z" style="white-space:pre" aria-label="..."/>
   <path d="m218.49 123.54v-0.79247h0.61757v0.79247zm3.2298 0v-0.79247h0.61759v0.79247zm3.2298 0v-0.79247h0.61758v0.79247z" style="white-space:pre" aria-label="..."/>
   <path d="m278.49 123.54v-0.79247h0.61758v0.79247zm3.2298 0v-0.79247h0.61758v0.79247zm3.2298 0v-0.79247h0.61758v0.79247z" style="white-space:pre" aria-label="..."/>
  </g>
  <path d="m278.49 62.977v-0.79246h0.61758v0.79246zm3.2298 0v-0.79246h0.61758v0.79246zm3.2298 0v-0.79246h0.61758v0.79246z" stroke-width=".34047" style="white-space:pre" aria-label="..."/>
  <g stroke-width=".34047">
   <path d="m278.49 22.604v-0.79247h0.61758v0.79247zm3.2298 0v-0.79247h0.61759v0.79247zm3.2298 0v-0.79247h0.61758v0.79247z" style="white-space:pre" aria-label="..."/>
   <path d="m278.49 184.1v-0.79247h0.61758v0.79247zm3.2298 0v-0.79247h0.61758v0.79247zm3.2298 0v-0.79247h0.61758v0.79247z" style="white-space:pre" aria-label="..."/>
   <path d="m278.49 224.48v-0.79247h0.61758v0.79247zm3.2298 0v-0.79247h0.61758v0.79247zm3.2298 0v-0.79247h0.61758v0.79247z" style="white-space:pre" aria-label="..."/>
   <path d="m338.49 123.54v-0.79247h0.61758v0.79247zm3.2298 0v-0.79247h0.61759v0.79247zm3.2298 0v-0.79247h0.61759v0.79247z" style="white-space:pre" aria-label="..."/>
   <path d="m378.49 123.54v-0.79247h0.61757v0.79247zm3.2298 0v-0.79247h0.61759v0.79247zm3.2298 0v-0.79247h0.61758v0.79247z" style="white-space:pre" aria-label="..."/>
   <path d="m58.505 123.54v-0.79247h0.61758v0.79247zm3.2298 0v-0.79247h0.61758v0.79247zm3.2298 0v-0.79247h0.61758v0.79247z" style="white-space:pre" aria-label="..."/>
   <path d="m18.504 123.54v-0.79247h0.61758v0.79247zm3.2298 0v-0.79247h0.61758v0.79247zm3.2298 0v-0.79247h0.61758v0.79247z" style="white-space:pre" aria-label="..."/>
   <path d="m118.51 184.1v-0.79247h0.61759v0.79247zm3.2298 0v-0.79247h0.61758v0.79247zm3.2298 0v-0.79247h0.61759v0.79247z" style="white-space:pre" aria-label="..."/>
   <path d="m118.51 224.47v-0.79247h0.61759v0.79247zm3.2298 0v-0.79247h0.61758v0.79247zm3.2298 0v-0.79247h0.61759v0.79247z" style="white-space:pre" aria-label="..."/>
   <path d="m118.51 123.54v-0.79247h0.61759v0.79247zm3.2298 0v-0.79247h0.61758v0.79247zm3.2298 0v-0.79247h0.61759v0.79247z" style="white-space:pre" aria-label="..."/>
  </g>
  <g stroke-width=".40188">
   <path d="m167.9 183.7q0 0.78408 0.24012 1.4171t0.7825 1.3059h-0.53673q-0.54238-0.67289-0.77968-1.303-0.23444-0.63297-0.23444-1.4256 0-0.77839 0.23164-1.4028 0.23165-0.62728 0.7825-1.3116h0.53674q-0.54239 0.67289-0.78251 1.3087-0.24011 0.63297-0.24011 1.4114zm4.4492 1.5112v-1.7763h-1.4746v1.7763h-0.53956v-3.8463h0.53956v1.6138h1.4746v-1.6138h0.53956v3.8463zm1.9435-1.323v-0.45619h1.582v0.45619zm2.9351 1.323v-0.3336q0.13841-0.31082 0.42938-0.62442 0.29378-0.31648 0.79664-0.72137 0.44916-0.36213 0.64691-0.63012 0.19772-0.268 0.19772-0.51608 0-0.31648-0.19493-0.48756-0.19492-0.17107-0.5565-0.17107-0.32205 0-0.52261 0.17961-0.19774 0.17677-0.23445 0.49896l-0.51979-0.0484q0.0565-0.48471 0.39265-0.76699 0.33617-0.28511 0.8842-0.28511 0.60171 0 0.93787 0.2737 0.33617 0.27371 0.33617 0.77554 0 0.3279-0.21469 0.65578-0.21468 0.32507-0.64126 0.6672-0.58193 0.4676-0.80792 0.69-0.22316 0.21955-0.3164 0.42768h2.0424v0.41628zm3.7967 1.035 0.4774-1.8875h0.74861l-0.87855 1.8875zm5.6159-1.035h-0.58758q-0.20904-0.78694-0.31921-1.1975-0.10736-0.41058-0.22881-0.95802-0.0819 0.35643-0.15256 0.64439-0.0678 0.28799-0.40396 1.5112h-0.58758l-0.59606-3.8463h0.53391l0.30792 2.3808q0.0452 0.3735 0.0933 0.98652 0.0904-0.3935 0.14972-0.65008 0.0622-0.25662 0.40679-1.5254h0.49436q0.19493 0.72137 0.30508 1.1348 0.11301 0.41343 0.2514 1.0407l0.0989-0.98652 0.29376-2.3808h0.53392zm1.5396-1.323v-0.45619h1.582v0.45619zm5.599-0.68144q0 0.98653-0.37569 1.5254-0.37568 0.53604-1.065 0.53604-0.46611 0-0.74861-0.19673-0.27964-0.19957-0.40113-0.64153l0.48588-0.077q0.15256 0.50182 0.67233 0.50182 0.43503 0 0.67798-0.39633 0.24577-0.39917 0.2514-1.1006-0.113 0.25662-0.387 0.41343-0.274 0.15395-0.6017 0.15395-0.53392 0-0.85878-0.36213-0.32205-0.36493-0.32205-0.94947 0-0.60446 0.35313-0.95516 0.35593-0.35356 0.97177-0.35356 1.3475 0 1.3475 1.9018zm-0.55369-0.45335q0-0.45905-0.226-0.74418-0.226-0.28799-0.58476-0.28799-0.36724 0-0.57911 0.24805-0.21188 0.24804-0.21188 0.64438 0 0.40773 0.21188 0.65864 0.21189 0.24804 0.57347 0.24804 0.21468 0 0.40396-0.0969 0.19208-0.0998 0.30224-0.27374 0.11016-0.17678 0.11016-0.39633zm3.4549 0.94091q0 0.79835-0.23448 1.4285-0.23165 0.62728-0.77403 1.3002h-0.54238q0.55368-0.68715 0.79097-1.3201 0.23729-0.63583 0.23729-1.4028 0-0.76414-0.23729-1.3971-0.23728-0.63582-0.79097-1.323h0.54238q0.55086 0.68429 0.77967 1.3059 0.22881 0.62157 0.22881 1.4085z" aria-label="(H-2,W-9)"/>
   <path d="m167.9 224.08q0 0.78409 0.24012 1.4171 0.24012 0.63298 0.7825 1.3059h-0.53673q-0.54238-0.67289-0.77968-1.303-0.23444-0.63298-0.23444-1.4256 0-0.77839 0.23164-1.4028 0.23165-0.62727 0.7825-1.3116h0.53673q-0.54238 0.67288-0.7825 1.3087-0.24012 0.63298-0.24012 1.4114zm4.4492 1.5112v-1.7763h-1.4746v1.7763h-0.53956v-3.8463h0.53956v1.6138h1.4746v-1.6138h0.53956v3.8463zm1.9435-1.323v-0.4562h1.582v0.4562zm2.9718 1.323v-0.41343h1.2401v-2.9111q-0.10452 0.22238-0.49719 0.38775-0.38985 0.16536-0.76837 0.16536v-0.42198q0.41808 0 0.78815-0.18532 0.37288-0.18531 0.51978-0.4676h0.46894v3.4329h0.9972v0.41343zm3.76 1.035 0.47741-1.8875h0.7486l-0.87855 1.8875zm5.6159-1.035h-0.58758q-0.20904-0.78694-0.31921-1.1975-0.10732-0.41058-0.22881-0.95802-0.0819 0.35643-0.15252 0.64439-0.0678 0.28799-0.40396 1.5112h-0.58758l-0.59606-3.8463h0.53391l0.30792 2.3808q0.0452 0.3735 0.0933 0.98652 0.0904-0.39349 0.14972-0.65008 0.0622-0.25662 0.40679-1.5254h0.49436q0.19493 0.72136 0.30508 1.1348 0.11301 0.41343 0.25141 1.0407l0.0989-0.98652 0.29376-2.3808h0.53392zm1.5396-1.323v-0.4562h1.582v0.4562zm5.599-0.68145q0 0.98653-0.37569 1.5254-0.37572 0.53604-1.065 0.53604-0.4661 0-0.7486-0.19673-0.27964-0.19956-0.40113-0.64153l0.48588-0.077q0.15252 0.50182 0.67233 0.50182 0.43503 0 0.67798-0.39633 0.24577-0.39917 0.2514-1.1006-0.113 0.25663-0.387 0.41343-0.274 0.15395-0.60171 0.15395-0.53392 0-0.85877-0.36213-0.32205-0.36497-0.32205-0.94947 0-0.60446 0.35312-0.95516 0.35593-0.35356 0.97178-0.35356 1.3475 0 1.3475 1.9018zm-0.55368-0.45335q0-0.45905-0.226-0.74417-0.22601-0.28799-0.58476-0.28799-0.36725 0-0.57911 0.24804-0.21188 0.24805-0.21188 0.64438 0 0.40773 0.21188 0.65864 0.21189 0.24804 0.57346 0.24804 0.21469 0 0.40396-0.0969 0.19208-0.0998 0.30224-0.27375 0.11017-0.17678 0.11017-0.39633zm3.4549 0.94091q0 0.79835-0.23444 1.4285-0.23165 0.62727-0.77403 1.3002h-0.54238q0.55368-0.68715 0.79097-1.3201 0.23729-0.63583 0.23729-1.4028 0-0.76414-0.23729-1.3971-0.23728-0.63583-0.79097-1.323h0.54238q0.55086 0.68429 0.77967 1.3059t0.22881 1.4085z" aria-label="(H-1,W-9)"/>
   <path d="m207.9 183.7q0 0.78409 0.24012 1.4171 0.24012 0.63298 0.78251 1.3059h-0.53674q-0.54239-0.67289-0.77967-1.303-0.23445-0.63298-0.23445-1.4256 0-0.77839 0.23164-1.4028 0.23164-0.62727 0.7825-1.3116h0.53674q-0.54239 0.67288-0.7825 1.3087-0.24013 0.63298-0.24013 1.4114zm4.4492 1.5112v-1.7763h-1.4746v1.7763h-0.53956v-3.8463h0.53956v1.6138h1.4746v-1.6138h0.53956v3.8463zm1.9435-1.323v-0.4562h1.582v0.4562zm2.9351 1.323v-0.3336q0.13841-0.31081 0.42939-0.62442 0.29376-0.31648 0.79663-0.72136 0.44916-0.36214 0.6469-0.63013 0.19772-0.268 0.19772-0.51608 0-0.31648-0.19492-0.48756-0.19492-0.17107-0.55651-0.17107-0.32205 0-0.52261 0.17961-0.19772 0.17678-0.23444 0.49897l-0.51979-0.0485q0.0565-0.48471 0.39265-0.76698 0.33616-0.28512 0.8842-0.28512 0.6017 0 0.93787 0.27371 0.33616 0.27374 0.33616 0.77554 0 0.32789-0.21468 0.65578-0.21468 0.32506-0.64125 0.66719-0.58194 0.46761-0.80793 0.69-0.22317 0.21956-0.31637 0.42769h2.0424v0.41628zm3.7967 1.035 0.47741-1.8875h0.7486l-0.87855 1.8875zm5.6159-1.035h-0.58758q-0.20904-0.78694-0.31921-1.1975-0.10732-0.41058-0.2288-0.95802-0.0819 0.35639-0.15253 0.64439-0.0678 0.28799-0.40396 1.5112h-0.58758l-0.59606-3.8463h0.53392l0.30792 2.3808q0.0452 0.3735 0.0933 0.98653 0.0904-0.3935 0.14972-0.65009 0.0621-0.25662 0.40678-1.5254h0.49436q0.19493 0.72136 0.30509 1.1348 0.113 0.41343 0.25141 1.0407l0.0988-0.98653 0.29377-2.3808h0.53391zm1.5396-1.323v-0.4562h1.582v0.4562zm5.6188 0.24521q0 0.52463-0.35309 0.82971-0.35029 0.30507-1.0028 0.30507-0.63843 0-1-0.29936-0.35876-0.29936-0.35876-0.82971 0-0.3678 0.22316-0.62442 0.22316-0.25946 0.57063-0.31936v-0.0113q-0.3164-0.077-0.50848-0.32506-0.19209-0.24805-0.19209-0.5674 0-0.27941 0.15537-0.50752 0.1582-0.22813 0.4435-0.35355 0.28533-0.12546 0.65538-0.12546 0.38701 0 0.67516 0.12829 0.28812 0.12546 0.44069 0.35068 0.15256 0.22526 0.15256 0.51323 0 0.32218-0.19493 0.57024-0.19492 0.24805-0.5113 0.31082v0.0113q0.36725 0.0599 0.58476 0.31365 0.22033 0.25092 0.22033 0.63012zm-0.62712-1.8077q0-0.31648-0.19209-0.47615-0.18928-0.16249-0.54804-0.16249-0.34744 0-0.54239 0.16249-0.19207 0.16249-0.19207 0.47615 0 0.31649 0.19492 0.49042 0.19492 0.17394 0.5452 0.17394 0.73449 0 0.73449-0.66434zm0.0988 1.7592q0-0.34214-0.22031-0.52463-0.22033-0.18531-0.61867-0.18531-0.38417 0-0.60452 0.19956-0.21753 0.19673-0.21753 0.52177 0 0.38492 0.21188 0.58736 0.21469 0.19956 0.62713 0.19956 0.41527 0 0.61865-0.19673 0.20341-0.19673 0.20341-0.60161zm3.4097-0.39062q0 0.79835-0.23445 1.4285-0.23164 0.62727-0.77402 1.3002h-0.54239q0.55369-0.68715 0.79098-1.3201 0.23728-0.63583 0.23728-1.4028 0-0.76413-0.23728-1.3971-0.23729-0.63583-0.79098-1.323h0.54239q0.55086 0.68429 0.77968 1.3059 0.2288 0.62158 0.2288 1.4085z" aria-label="(H-2,W-8)"/>
   <path d="m207.9 224.08q0 0.78409 0.24012 1.4171 0.24012 0.63297 0.78251 1.3059h-0.53675q-0.54238-0.67289-0.77966-1.303-0.23445-0.63297-0.23445-1.4256 0-0.77839 0.23164-1.4028 0.23164-0.62728 0.7825-1.3116h0.53674q-0.54239 0.67289-0.7825 1.3087-0.24013 0.63297-0.24013 1.4114zm4.4492 1.5112v-1.7763h-1.4746v1.7763h-0.53957v-3.8463h0.53957v1.6138h1.4746v-1.6138h0.53956v3.8463zm1.9435-1.323v-0.4562h1.582v0.4562zm2.9718 1.323v-0.41343h1.2401v-2.9111q-0.10452 0.22239-0.49718 0.38775-0.38985 0.16537-0.76838 0.16537v-0.42197q0.41809 0 0.78815-0.18532 0.37289-0.18532 0.51979-0.46761h0.46893v3.4329h0.9972v0.41343zm3.76 1.035 0.47742-1.8875h0.7486l-0.87855 1.8875zm5.6159-1.035h-0.58758q-0.20904-0.78694-0.3192-1.1975-0.10736-0.41058-0.2288-0.95802-0.0819 0.35639-0.15253 0.64438-0.0678 0.28799-0.40396 1.5112h-0.58764l-0.59605-3.8463h0.53391l0.30793 2.3808q0.0452 0.37351 0.0932 0.98653 0.0904-0.3935 0.14972-0.65008 0.0621-0.25663 0.40678-1.5254h0.49437q0.19492 0.72137 0.30508 1.1348 0.11301 0.41343 0.25141 1.0407l0.0988-0.98653 0.29377-2.3808h0.5339zm1.5396-1.323v-0.4562h1.582v0.4562zm5.6188 0.24521q0 0.52463-0.35309 0.82971-0.35029 0.30507-1.0028 0.30507-0.63843 0-1-0.29936-0.35876-0.29937-0.35876-0.82972 0-0.3678 0.22316-0.62442 0.22316-0.25946 0.57063-0.31936v-0.0113q-0.31637-0.077-0.50848-0.32506-0.19209-0.24805-0.19209-0.5674 0-0.27945 0.15537-0.50752 0.1582-0.22813 0.44351-0.35355 0.28529-0.1255 0.65535-0.1255 0.38701 0 0.67516 0.12829 0.28812 0.12546 0.44069 0.35068 0.15256 0.22526 0.15256 0.51322 0 0.32219-0.19493 0.57025-0.19492 0.24805-0.51131 0.31082v0.0113q0.36726 0.0599 0.58477 0.31361 0.22032 0.25092 0.22032 0.63013zm-0.62714-1.8077q0-0.31648-0.19208-0.47616-0.18928-0.16249-0.54804-0.16249-0.34744 0-0.54239 0.16249-0.19207 0.16249-0.19207 0.47616 0 0.31648 0.19492 0.49041 0.19492 0.17395 0.54521 0.17395 0.73448 0 0.73448-0.66434zm0.0988 1.7592q0-0.34214-0.22032-0.52462-0.22033-0.18532-0.61866-0.18532-0.38417 0-0.60453 0.19956-0.21753 0.19673-0.21753 0.52178 0 0.38492 0.21189 0.58735 0.21468 0.19957 0.62713 0.19957 0.41527 0 0.61865-0.19673 0.20341-0.19673 0.20341-0.60162zm3.4097-0.39062q0 0.79834-0.23444 1.4285-0.23165 0.62727-0.77403 1.3002h-0.54238q0.55368-0.68714 0.79098-1.3201 0.23728-0.63583 0.23728-1.4028 0-0.76413-0.23728-1.3971-0.23729-0.63582-0.79098-1.323h0.54238q0.55086 0.68429 0.77968 1.3059 0.2288 0.62157 0.2288 1.4085z" aria-label="(H-1,W-8)"/>
   <path d="m327.91 183.7q0 0.78408 0.24013 1.4171 0.24012 0.63298 0.7825 1.3059h-0.53674q-0.54238-0.67289-0.77967-1.303-0.23449-0.63297-0.23449-1.4256 0-0.77838 0.23165-1.4028 0.23164-0.62728 0.7825-1.3116h0.53674q-0.5424 0.67289-0.7825 1.3087-0.24013 0.63297-0.24013 1.4114zm4.4492 1.5112v-1.7763h-1.4746v1.7763h-0.53955v-3.8463h0.53955v1.6138h1.4746v-1.6138h0.53956v3.8463zm1.9435-1.323v-0.45619h1.582v0.45619zm2.9351 1.323v-0.33361q0.13839-0.31081 0.42939-0.62442 0.2938-0.31648 0.79662-0.72136 0.44915-0.36214 0.6469-0.63013 0.19772-0.268 0.19772-0.51607 0-0.31649-0.19492-0.48757-0.19492-0.17107-0.55651-0.17107-0.32205 0-0.52261 0.17961-0.19772 0.17682-0.23448 0.49897l-0.51978-0.0485q0.0565-0.48471 0.39264-0.76698 0.33617-0.28512 0.88421-0.28512 0.6017 0 0.93786 0.2737 0.33617 0.27375 0.33617 0.77554 0 0.3279-0.21468 0.65579-0.21469 0.32506-0.64125 0.66719-0.58194 0.4676-0.80793 0.69-0.22317 0.21955-0.31637 0.42769h2.0424v0.41628zm3.7967 1.035 0.47741-1.8875h0.7486l-0.87855 1.8875zm5.6159-1.035h-0.58759q-0.20904-0.78695-0.3192-1.1975-0.10736-0.41058-0.2288-0.95802-0.0819 0.35639-0.15253 0.64439-0.0678 0.28799-0.40396 1.5112h-0.5876l-0.59609-3.8463h0.53392l0.30793 2.3808q0.0452 0.3735 0.0932 0.98653 0.0904-0.3935 0.14972-0.65009 0.0621-0.25662 0.40678-1.5254h0.49436q0.19493 0.72137 0.30509 1.1348 0.113 0.41343 0.25141 1.0407l0.0989-0.98653 0.29381-2.3808h0.53391zm1.5396-1.323v-0.45619h1.5819v0.45619zm2.9351 1.323v-0.33361q0.1384-0.31081 0.42939-0.62442 0.29377-0.31648 0.79663-0.72136 0.44916-0.36214 0.6469-0.63013 0.19772-0.268 0.19772-0.51607 0-0.31649-0.19492-0.48757-0.19493-0.17107-0.55651-0.17107-0.32205 0-0.52261 0.17961-0.19773 0.17682-0.23448 0.49897l-0.51979-0.0485q0.0565-0.48471 0.39265-0.76698 0.33616-0.28512 0.8842-0.28512 0.60171 0 0.93787 0.2737 0.33616 0.27375 0.33616 0.77554 0 0.3279-0.21468 0.65579-0.21468 0.32506-0.64125 0.66719-0.58194 0.4676-0.80793 0.69-0.22316 0.21955-0.31636 0.42769h2.0424v0.41628zm5.5651-1.5169q0 0.79835-0.23444 1.4285-0.23165 0.62728-0.77403 1.3002h-0.54238q0.55367-0.68714 0.79097-1.3201 0.23728-0.63583 0.23728-1.4028 0-0.76414-0.23728-1.3971-0.23729-0.63582-0.79097-1.323h0.54238q0.55086 0.68429 0.77968 1.3059 0.2288 0.62157 0.2288 1.4085z" aria-label="(H-2,W-2)"/>
   <path d="m367.91 183.7q0 0.78409 0.24013 1.4171 0.24013 0.63298 0.7825 1.3059h-0.53674q-0.54238-0.67289-0.77967-1.303-0.23448-0.63298-0.23448-1.4256 0-0.77838 0.23164-1.4028 0.23164-0.62727 0.7825-1.3116h0.53674q-0.54239 0.67289-0.78251 1.3087-0.24012 0.63297-0.24012 1.4114zm4.4492 1.5112v-1.7763h-1.4746v1.7763h-0.53957v-3.8463h0.53957v1.6138h1.4746v-1.6138h0.53955v3.8463zm1.9435-1.323v-0.4562h1.582v0.4562zm2.9351 1.323v-0.33361q0.13841-0.31077 0.42939-0.62442 0.29376-0.31648 0.79662-0.72136 0.44916-0.36213 0.64691-0.63013 0.19773-0.268 0.19773-0.51607 0-0.31648-0.19492-0.48757-0.19493-0.17107-0.55652-0.17107-0.32204 0-0.52261 0.17961-0.19772 0.17678-0.23448 0.49897l-0.51979-0.0484q0.0565-0.48472 0.39266-0.76699 0.33616-0.28512 0.88419-0.28512 0.60171 0 0.93788 0.27375 0.33616 0.2737 0.33616 0.77554 0 0.32789-0.21468 0.65578-0.21468 0.32506-0.64126 0.66719-0.58193 0.46761-0.80793 0.69-0.22316 0.21956-0.31636 0.42769h2.0424v0.41628zm3.7967 1.035 0.4774-1.8875h0.74861l-0.87855 1.8875zm5.6159-1.035h-0.58758q-0.20905-0.78694-0.3192-1.1975-0.10737-0.41057-0.22881-0.95802-0.0819 0.35643-0.15252 0.64439-0.0678 0.28799-0.40397 1.5112h-0.58758l-0.59606-3.8463h0.53391l0.30793 2.3808q0.0452 0.37351 0.0932 0.98653 0.0904-0.3935 0.14972-0.65009 0.0621-0.25662 0.40679-1.5254h0.49435q0.19493 0.72136 0.30509 1.1348 0.113 0.41342 0.25141 1.0407l0.0989-0.98653 0.29376-2.3808h0.53391zm1.5396-1.323v-0.4562h1.582v0.4562zm2.9718 1.323v-0.41343h1.2401v-2.9111q-0.10452 0.22239-0.49718 0.38776-0.38985 0.16536-0.76838 0.16536v-0.42198q0.41809 0 0.78815-0.18532 0.37289-0.18531 0.51978-0.4676h0.46894v3.4329h0.99719v0.41343zm5.5284-1.5169q0 0.79835-0.23449 1.4285-0.23163 0.62727-0.77402 1.3002h-0.54239q0.5537-0.68714 0.79098-1.3201 0.23728-0.63583 0.23728-1.4028 0-0.76414-0.23728-1.3971-0.23728-0.63583-0.79098-1.323h0.54239q0.55086 0.6843 0.77968 1.3059 0.2288 0.62157 0.2288 1.4085z" aria-label="(H-2,W-1)"/>
  </g>
  <path d="m51.373 183.7q0 0.78409 0.24012 1.4171 0.24012 0.63297 0.78248 1.3059h-0.53672q-0.54237-0.6729-0.77966-1.303-0.23448-0.63297-0.23448-1.4256 0-0.77839 0.23164-1.4028 0.23164-0.62728 0.78248-1.3116h0.53672q-0.54237 0.6729-0.78248 1.3087-0.24012 0.63298-0.24012 1.4114zm4.4491 1.5112v-1.7763h-1.4746v1.7763h-0.53955v-3.8463h0.53955v1.6138h1.4746v-1.6138h0.53954v3.8463zm1.9435-1.323v-0.4562h1.5819v0.4562zm2.935 1.323v-0.3336q0.1384-0.31082 0.42938-0.62442 0.29376-0.31649 0.79661-0.72137 0.44916-0.36213 0.6469-0.63012 0.19772-0.268 0.19772-0.51608 0-0.31648-0.19492-0.48756-0.19492-0.17107-0.5565-0.17107-0.32204 0-0.5226 0.17961-0.19772 0.17678-0.23444 0.49897l-0.51977-0.0485q0.05648-0.48471 0.39265-0.76698 0.33616-0.28512 0.88418-0.28512 0.6017 0 0.93786 0.27371 0.33617 0.27374 0.33617 0.77554 0 0.32789-0.21468 0.65578-0.21468 0.32506-0.64124 0.66719-0.58193 0.46761-0.80791 0.69-0.22316 0.21956-0.31637 0.42769h2.0424v0.41628zm3.7966 1.035 0.4774-1.8875h0.74859l-0.87853 1.8875zm3.1836-1.035v-0.41343h1.2401v-2.9111q-0.10452 0.22239-0.49718 0.38775-0.38985 0.16536-0.76836 0.16536v-0.42198q0.41808 0 0.78814-0.18532 0.37289-0.18531 0.51977-0.4676h0.46892v3.4329h0.99718v0.41344zm5.5282-1.5169q0 0.79834-0.23444 1.4285-0.23164 0.62727-0.77401 1.3002h-0.54237q0.55367-0.68715 0.79096-1.3201 0.23728-0.63583 0.23728-1.4028 0-0.76413-0.23728-1.3971-0.23728-0.63582-0.79096-1.323h0.54237q0.55084 0.6843 0.77966 1.3059 0.2288 0.62157 0.2288 1.4085z" stroke-width=".40187" aria-label="(H-2,1)"/>
  <path d="m51.373 224.08q0 0.78409 0.24012 1.4171 0.24012 0.63297 0.78249 1.3059h-0.53672q-0.54238-0.6729-0.77967-1.303-0.23444-0.63298-0.23444-1.4256 0-0.77839 0.23164-1.4028 0.23164-0.62728 0.78249-1.3116h0.53672q-0.54237 0.67289-0.78249 1.3087-0.24012 0.63298-0.24012 1.4114zm4.4492 1.5112v-1.7763h-1.4746v1.7763h-0.53954v-3.8463h0.53954v1.6138h1.4746v-1.6138h0.53955v3.8463zm1.9435-1.323v-0.4562h1.5819v0.4562zm2.9718 1.323v-0.41343h1.2401v-2.9111q-0.10452 0.22239-0.49717 0.38775-0.38985 0.16537-0.76836 0.16537v-0.42197q0.41808 0 0.78813-0.18532 0.37289-0.18532 0.51977-0.46761h0.46893v3.4329h0.99717v0.41343zm3.7599 1.035 0.4774-1.8875h0.74859l-0.87853 1.8875zm3.1836-1.035v-0.41343h1.2401v-2.9111q-0.10452 0.22239-0.49718 0.38775-0.38985 0.16537-0.76836 0.16537v-0.42197q0.41808 0 0.78813-0.18532 0.37289-0.18532 0.51977-0.46761h0.46893v3.4329h0.99717v0.41343zm5.5282-1.5169q0 0.79835-0.23444 1.4285-0.23164 0.62727-0.77401 1.3002h-0.54237q0.55367-0.68715 0.79097-1.3201 0.23728-0.63583 0.23728-1.4028 0-0.76413-0.23728-1.3971-0.23728-0.63583-0.79097-1.323h0.54237q0.55085 0.68429 0.77966 1.3059 0.2288 0.62158 0.2288 1.4085z" stroke-width=".40187" aria-label="(H-1,1)"/>
  <path d="m11.372 183.7q0 0.78401 0.24011 1.4169 0.24011 0.63292 0.78248 1.3057h-0.53672q-0.54237-0.67282-0.77966-1.3029-0.23446-0.63291-0.23446-1.4255 0-0.77832 0.23164-1.4027 0.23164-0.62722 0.78249-1.3114h0.53672q-0.54237 0.67282-0.78249 1.3086-0.24011 0.63292-0.24011 1.4112zm4.4492 1.511v-1.7762h-1.4746v1.7762h-0.53955v-3.846h0.53955v1.6136h1.4746v-1.6136h0.53955v3.846zm1.9435-1.3228v-0.45615h1.5819v0.45615zm2.935 1.3228v-0.33357q0.13842-0.31077 0.42938-0.62435 0.29379-0.31644 0.79661-0.7213 0.44915-0.36209 0.64689-0.63006 0.19774-0.26796 0.19774-0.51602 0-0.31645-0.19492-0.48751-0.19492-0.17107-0.5565-0.17107-0.32203 0-0.5226 0.17961-0.19774 0.17677-0.23446 0.49891l-0.51978-0.0485q0.0565-0.48466 0.39266-0.76691 0.33616-0.28507 0.88418-0.28507 0.60169 0 0.93785 0.2737 0.33616 0.27366 0.33616 0.77546 0 0.32785-0.21469 0.65572-0.21469 0.32502-0.64124 0.66712-0.58192 0.46756-0.80791 0.68993-0.22316 0.21952-0.31638 0.42764h2.0424v0.41625zm3.7966 1.0349 0.4774-1.8873h0.74859l-0.87853 1.8873zm5.8559-2.9593q0 0.96362-0.35311 1.4739-0.35028 0.50747-1.0367 0.50747-0.68644 0-1.0311-0.50462-0.34463-0.50747-0.34463-1.4768 0-0.99498 0.33616-1.4882t1.0565-0.49322q0.70339 0 1.0367 0.49892 0.33616 0.49607 0.33616 1.4825zm-0.51695 0q0-0.82678-0.20056-1.1946-0.19774-0.37063-0.65537-0.37063-0.46893 0-0.67514 0.36488-0.20339 0.36489-0.20339 1.2003 0 0.81252 0.20622 1.1888 0.20904 0.37346 0.66102 0.37346 0.44915 0 0.65819-0.38487 0.20904-0.38488 0.20904-1.1774zm-1.1977 0.3421v-0.70989h0.66384v0.70989zm4.5706 0.0656q0 0.79827-0.23446 1.4283-0.23164 0.62721-0.77401 1.3h-0.54237q0.55367-0.68707 0.79096-1.32 0.23729-0.63576 0.23729-1.4027 0-0.76406-0.23729-1.397-0.23729-0.63576-0.79096-1.3228h0.54237q0.55085 0.68423 0.77966 1.3057 0.22881 0.62151 0.22881 1.4084z" stroke-width=".40185" aria-label="(H-2,0)"/>
  <path d="m14.844 22.205q0 0.78409 0.2401 1.4171 0.2401 0.63298 0.78245 1.3059h-0.5367q-0.54235-0.67289-0.77963-1.303-0.23445-0.63298-0.23445-1.4256 0-0.77839 0.23163-1.4028 0.23163-0.62727 0.78245-1.3116h0.5367q-0.54235 0.67289-0.78245 1.3087-0.2401 0.63298-0.2401 1.4114zm5.093-0.41343q0 0.96372-0.35309 1.4741-0.35027 0.50752-1.0367 0.50752-0.68641 0-1.031-0.50467-0.34462-0.50752-0.34462-1.4769 0-0.99508 0.33614-1.4883 0.33614-0.49326 1.0565-0.49326 0.70336 0 1.0367 0.49897 0.33614 0.49612 0.33614 1.4826zm-0.51693 0q0-0.82686-0.20056-1.1947-0.19773-0.37066-0.65534-0.37066-0.4689 0-0.67511 0.36496-0.20338 0.36496-0.20338 1.2004 0 0.8126 0.20621 1.189 0.20903 0.37351 0.66099 0.37351 0.44913 0 0.65816-0.38492 0.20903-0.38492 0.20903-1.1776zm-1.1977 0.34215v-0.70996h0.66381v0.70996zm2.8021 2.6174 0.47738-1.8875h0.74856l-0.87849 1.8875zm5.8557-2.9596q0 0.96372-0.35309 1.4741-0.35027 0.50752-1.0367 0.50752-0.68641 0-1.031-0.50467-0.34462-0.50752-0.34462-1.4769 0-0.99508 0.33614-1.4883 0.33614-0.49326 1.0565-0.49326 0.70336 0 1.0367 0.49897 0.33614 0.49612 0.33614 1.4826zm-0.51693 0q0-0.82686-0.20056-1.1947-0.19773-0.37066-0.65534-0.37066-0.46891 0-0.67511 0.36496-0.20338 0.36496-0.20338 1.2004 0 0.8126 0.20621 1.189 0.20903 0.37351 0.66099 0.37351 0.44913 0 0.65816-0.38492 0.20903-0.38492 0.20903-1.1776zm-1.1977 0.34215v-0.70996h0.66381v0.70996zm4.5704 0.06558q0 0.79835-0.23446 1.4285-0.23163 0.62727-0.77398 1.3002h-0.54235q0.55365-0.68715 0.79093-1.3201 0.23728-0.63583 0.23728-1.4028 0-0.76413-0.23728-1.3971-0.23728-0.63582-0.79093-1.323h0.54235q0.55082 0.6843 0.77963 1.3059 0.2288 0.62157 0.2288 1.4085z" stroke-width=".40186" aria-label="(0,0)"/>
  <path d="m54.845 22.204q0 0.78402 0.24012 1.4169 0.24012 0.63291 0.78245 1.3057h-0.53671q-0.54235-0.67283-0.77963-1.3029-0.23444-0.63291-0.23444-1.4255 0-0.77831 0.23164-1.4027 0.23164-0.62721 0.78245-1.3114h0.5367q-0.54235 0.67283-0.78245 1.3086-0.24012 0.63291-0.24012 1.4112zm5.093-0.41339q0 0.96363-0.35313 1.4739-0.35029 0.50747-1.0367 0.50747-0.68642 0-1.031-0.50462-0.34465-0.50747-0.34465-1.4768 0-0.99499 0.33617-1.4882 0.33616-0.49322 1.0565-0.49322 0.70336 0 1.0367 0.49892 0.33617 0.49607 0.33617 1.4825zm-0.51693 0q0-0.82678-0.20056-1.1946-0.19772-0.37062-0.65534-0.37062-0.46891 0-0.67512 0.36492-0.2034 0.36492-0.2034 1.2003 0 0.81253 0.2062 1.1889 0.20904 0.37347 0.66099 0.37347 0.44914 0 0.65817-0.38488 0.20904-0.38488 0.20904-1.1774zm-1.1977 0.34212v-0.70989h0.66382v0.70989zm2.8021 2.6172 0.47738-1.8873h0.74856l-0.8785 1.8873zm3.1835-1.0349v-0.41339h1.2401v-2.9108q-0.10452 0.22238-0.49716 0.38773-0.38985 0.16536-0.76833 0.16536v-0.42194q0.41806 0 0.78811-0.18531 0.37289-0.18531 0.51975-0.46756h0.46891v3.4326h0.99714v0.41339zm5.528-1.5167q0 0.79827-0.23444 1.4283-0.23164 0.62721-0.77398 1.3h-0.54235q0.55365-0.68708 0.79093-1.32 0.23728-0.63576 0.23728-1.4027 0-0.76406-0.23728-1.397-0.23728-0.63576-0.79093-1.3228h0.54235q0.55082 0.68423 0.77963 1.3057t0.2288 1.4084z" stroke-width=".40184" aria-label="(0,1)"/>
  <path d="m14.844 62.579q0 0.78401 0.2401 1.4169 0.2401 0.63291 0.78245 1.3057h-0.5367q-0.54235-0.67283-0.77963-1.3029-0.23446-0.63292-0.23446-1.4255 0-0.77831 0.23163-1.4027 0.23163-0.62721 0.78246-1.3114h0.5367q-0.54235 0.67282-0.78246 1.3086-0.2401 0.63291-0.2401 1.4112zm2.4208 1.511v-0.41339h1.2401v-2.9108q-0.10451 0.22235-0.49716 0.38771-0.38981 0.16536-0.76833 0.16536v-0.42195q0.41806 0 0.7881-0.18532 0.37287-0.18528 0.51975-0.46756h0.46891v3.4326h0.99714v0.41339zm3.7597 1.0349 0.47738-1.8873h0.74856l-0.8785 1.8873zm5.8557-2.9593q0 0.96362-0.35309 1.4739-0.35027 0.50747-1.0367 0.50747-0.68641 0-1.031-0.50462-0.34462-0.50747-0.34462-1.4768 0-0.99499 0.33614-1.4882 0.33615-0.49322 1.0565-0.49322 0.70336 0 1.0367 0.49892 0.33614 0.49607 0.33615 1.4825zm-0.51693 0q0-0.82678-0.20056-1.1946-0.19773-0.37063-0.65534-0.37063-0.46891 0-0.67511 0.36493-0.20338 0.36489-0.20338 1.2003 0 0.81253 0.20621 1.1888 0.20903 0.37347 0.66099 0.37347 0.44914 0 0.65817-0.38488 0.20903-0.38488 0.20903-1.1774zm-1.1977 0.34214v-0.70988h0.66381v0.70988zm4.5704 0.06556q0 0.79827-0.23446 1.4283-0.23163 0.62721-0.77398 1.3h-0.54235q0.55365-0.68708 0.79093-1.32 0.23728-0.63577 0.23728-1.4027 0-0.76405-0.23728-1.397-0.23728-0.63577-0.79093-1.3228h0.54235q0.55082 0.68422 0.77963 1.3057 0.2288 0.62151 0.2288 1.4084z" stroke-width=".40184" aria-label="(1,0)"/>
  <path d="m54.845 62.579q0 0.7841 0.24012 1.4171 0.24012 0.63298 0.78246 1.3059h-0.5367q-0.54235-0.67289-0.77963-1.303-0.23444-0.63297-0.23444-1.4256 0-0.77839 0.23164-1.4028 0.23164-0.62728 0.78245-1.3116h0.5367q-0.54235 0.6729-0.78246 1.3087-0.24012 0.63297-0.24012 1.4114zm2.4208 1.5112v-0.41343h1.2401v-2.9111q-0.10452 0.22239-0.49716 0.38775-0.38985 0.16536-0.76833 0.16536v-0.42199q0.41806 0 0.78811-0.18532 0.37289-0.18532 0.51975-0.4676h0.46891v3.4329h0.99714v0.41343zm3.7597 1.035 0.47738-1.8875h0.74856l-0.87849 1.8875zm3.1835-1.035v-0.41343h1.2401v-2.9111q-0.10452 0.22239-0.49716 0.38775-0.38985 0.16536-0.76833 0.16536v-0.42199q0.41806 0 0.78811-0.18532 0.37289-0.18532 0.51975-0.4676h0.46891v3.4329h0.99714v0.41343zm5.528-1.5169q0 0.79835-0.23444 1.4285-0.23164 0.62728-0.77398 1.3002h-0.54235q0.55365-0.68715 0.79093-1.3201 0.23728-0.63583 0.23728-1.4028 0-0.76413-0.23728-1.3971-0.23728-0.63584-0.79093-1.323h0.54235q0.55082 0.6843 0.77963 1.3059 0.2288 0.62157 0.2288 1.4085z" stroke-width=".40186" aria-label="(1,1)"/>
  <path d="m171.37 22.204q0 0.78402 0.24013 1.4169 0.24012 0.63291 0.78248 1.3057h-0.53673q-0.54238-0.67283-0.77966-1.3029-0.23444-0.63291-0.23444-1.4255 0-0.77831 0.23164-1.4027 0.23164-0.62721 0.78248-1.3114h0.53673q-0.54238 0.67283-0.7825 1.3086-0.24012 0.63291-0.24012 1.4112zm5.0932-0.41339q0 0.96363-0.35313 1.4739-0.35029 0.50747-1.0367 0.50747-0.68645 0-1.0311-0.50462-0.34465-0.50747-0.34465-1.4768 0-0.99498 0.33617-1.4882 0.33616-0.49322 1.0565-0.49322 0.70339 0 1.0367 0.49892 0.33616 0.49607 0.33616 1.4825zm-0.51695 0q0-0.82678-0.20056-1.1946-0.19772-0.37062-0.65537-0.37062-0.46893 0-0.67515 0.36492-0.20339 0.36492-0.20339 1.2003 0 0.81252 0.2062 1.1889 0.20904 0.37347 0.66101 0.37347 0.44916 0 0.6582-0.38488 0.20904-0.38488 0.20904-1.1774zm-1.1977 0.34212v-0.70989h0.66384v0.70989zm2.8022 2.6172 0.4774-1.8873h0.74859l-0.87853 1.8873zm5.6158-1.0349h-0.58757q-0.20904-0.78687-0.3192-1.1974-0.10732-0.41054-0.2288-0.95792-0.0819 0.35637-0.15257 0.64432-0.0678 0.28795-0.40395 1.511h-0.58757l-0.59604-3.8459h0.53391l0.30792 2.3806q0.0452 0.37347 0.0933 0.98643 0.0904-0.39343 0.14973-0.65002 0.0621-0.25659 0.40677-1.5253h0.49435q0.19493 0.72129 0.30509 1.1347 0.113 0.41339 0.25141 1.0406l0.0988-0.98643 0.29377-2.3806h0.5339zm1.5396-1.3228v-0.45615h1.5819v0.45615zm5.5989-0.68138q0 0.98643-0.37569 1.5253-0.37572 0.53598-1.065 0.53598-0.46611 0-0.74859-0.19672-0.27964-0.19957-0.40113-0.64147l0.48588-0.07697q0.15253 0.50177 0.67231 0.50177 0.43504 0 0.67797-0.39628 0.24577-0.39913 0.25141-1.1005-0.113 0.25659-0.38701 0.41339-0.274 0.15395-0.6017 0.15395-0.53389 0-0.85875-0.36207-0.32204-0.36492-0.32204-0.94937 0-0.6044 0.35307-0.95507 0.35593-0.35352 0.97176-0.35352 1.3475 0 1.3475 1.9016zm-0.55368-0.4533q0-0.459-0.226-0.7441-0.226-0.28795-0.58474-0.28795-0.36725 0-0.5791 0.24803-0.21188 0.24803-0.21188 0.64432 0 0.40769 0.21188 0.65857 0.21188 0.24803 0.57345 0.24803 0.21468 0 0.40395-0.09694 0.19209-0.09979 0.30225-0.27369 0.11016-0.17676 0.11016-0.39628zm3.4548 0.94082q0 0.79827-0.23448 1.4283-0.23165 0.62721-0.77401 1.3h-0.54236q0.55367-0.68708 0.79097-1.32 0.23728-0.63576 0.23728-1.4027 0-0.76406-0.23728-1.397-0.23729-0.63576-0.79097-1.3228h0.54238q0.55084 0.68423 0.77966 1.3057 0.2288 0.62151 0.2288 1.4084z" stroke-width=".40185" aria-label="(0,W-9)"/>
  <path d="m211.38 22.204q0 0.78402 0.24011 1.4169 0.24013 0.63291 0.78249 1.3057h-0.53672q-0.54237-0.67283-0.77966-1.3029-0.23449-0.63291-0.23449-1.4255 0-0.77831 0.23165-1.4027 0.23165-0.62721 0.78248-1.3114h0.53672q-0.54237 0.67283-0.78248 1.3086-0.24012 0.63291-0.24012 1.4112zm5.0932-0.41339q0 0.96362-0.35313 1.4739-0.35028 0.50747-1.0367 0.50747t-1.0311-0.50462q-0.34465-0.50747-0.34465-1.4768 0-0.99499 0.33617-1.4882 0.33616-0.49322 1.0565-0.49322 0.70339 0 1.0367 0.49892 0.33617 0.49607 0.33617 1.4825zm-0.51695 0q0-0.82678-0.20057-1.1946-0.19772-0.37062-0.65536-0.37062-0.46893 0-0.67514 0.36492-0.20341 0.36492-0.20341 1.2003 0 0.81252 0.20621 1.1889 0.20904 0.37347 0.66102 0.37347 0.44915 0 0.65819-0.38488 0.20905-0.38488 0.20905-1.1774zm-1.1978 0.34212v-0.70989h0.66385v0.70989zm2.8023 2.6172 0.47741-1.8873h0.74858l-0.87853 1.8873zm5.6158-1.0349h-0.58757q-0.20905-0.78686-0.31921-1.1974-0.10736-0.41054-0.22881-0.95792-0.0819 0.35637-0.15251 0.64432-0.0678 0.28795-0.40396 1.511h-0.58757l-0.59607-3.8459h0.53389l0.30793 2.3806q0.0452 0.37347 0.0933 0.98643 0.0904-0.39343 0.14972-0.65002 0.0621-0.25658 0.40677-1.5253h0.49435q0.19493 0.72129 0.30509 1.1347 0.113 0.41339 0.25141 1.0406l0.0989-0.98643 0.29376-2.3806h0.5339zm1.5396-1.3228v-0.45615h1.5819v0.45615zm5.6186 0.24518q0 0.52458-0.35313 0.82963-0.35028 0.30505-1.0028 0.30505-0.63841 0-1-0.29935-0.35877-0.29935-0.35877-0.82963 0-0.36778 0.22316-0.62436 0.22317-0.25944 0.57062-0.31931v-0.01137q-0.31635-0.07697-0.50846-0.32501-0.19209-0.24803-0.19209-0.56734 0-0.2794 0.15536-0.50747 0.15821-0.22807 0.44351-0.35352 0.28532-0.12544 0.65537-0.12544 0.387 0 0.67514 0.12829 0.28812 0.12544 0.44067 0.35067 0.15252 0.22522 0.15252 0.51317 0 0.32216-0.19491 0.57019-0.19493 0.24803-0.51131 0.31075v0.01137q0.36725 0.05987 0.58474 0.3136 0.22033 0.25089 0.22033 0.63006zm-0.62712-1.8075q0-0.31646-0.19208-0.47611-0.18925-0.16251-0.54802-0.16251-0.34745 0-0.54237 0.16251-0.19209 0.1625-0.19209 0.47611 0 0.31645 0.19493 0.49036 0.19492 0.17391 0.54519 0.17391 0.73447 0 0.73447-0.66427zm0.0988 1.759q0-0.34212-0.22032-0.52458-0.22033-0.18531-0.61864-0.18531-0.38416 0-0.60452 0.19957-0.21753 0.19672-0.21753 0.52173 0 0.38488 0.21188 0.5873 0.21469 0.19957 0.62712 0.19957 0.41526 0 0.61865-0.19672 0.2034-0.19672 0.2034-0.60155zm3.4096-0.39058q0 0.79827-0.23446 1.4283-0.23163 0.62721-0.774 1.3h-0.54238q0.55368-0.68708 0.79096-1.32 0.23729-0.63576 0.23729-1.4027 0-0.76406-0.23729-1.397-0.23728-0.63576-0.79096-1.3228h0.54238q0.55085 0.68423 0.77966 1.3057 0.2288 0.62151 0.2288 1.4084z" stroke-width=".40185" aria-label="(0,W-8)"/>
  <g stroke-width=".40187">
   <path d="m171.37 62.579q0 0.78409 0.24012 1.4171 0.24013 0.63297 0.78249 1.3059h-0.53673q-0.54237-0.67289-0.77965-1.303-0.23449-0.63298-0.23449-1.4256 0-0.77839 0.23165-1.4028 0.23164-0.62727 0.78248-1.3116h0.53672q-0.54236 0.67289-0.78248 1.3087-0.24013 0.63298-0.24013 1.4114zm2.4209 1.5112v-0.41343h1.2401v-2.9111q-0.10452 0.22239-0.49717 0.38775-0.38985 0.16536-0.76836 0.16536v-0.42197q0.41808 0 0.78813-0.18532 0.37288-0.18532 0.51977-0.4676h0.46893v3.4329h0.99717v0.41343zm3.7599 1.035 0.4774-1.8875h0.74858l-0.87853 1.8875zm5.6158-1.035h-0.58757q-0.20904-0.78694-0.31921-1.1975-0.10735-0.41058-0.22879-0.95802-0.0819 0.35639-0.15253 0.64438-0.0678 0.28799-0.40396 1.5112h-0.58757l-0.59607-3.8463h0.5339l0.30793 2.3808q0.0452 0.37351 0.0932 0.98653 0.0904-0.3935 0.14972-0.65008 0.0621-0.25663 0.40677-1.5254h0.49435q0.19493 0.72136 0.30509 1.1348 0.113 0.41343 0.25141 1.0407l0.0988-0.98653 0.29377-2.3808h0.5339zm1.5395-1.323v-0.4562h1.5819v0.4562zm5.5989-0.68144q0 0.98653-0.37569 1.5254-0.37569 0.53603-1.065 0.53603-0.4661 0-0.74859-0.19673-0.27964-0.19956-0.40112-0.64153l0.48587-0.07698q0.15253 0.50182 0.67231 0.50182 0.43504 0 0.67797-0.39633 0.24576-0.39916 0.25141-1.1006-0.113 0.25663-0.38702 0.41343-0.274 0.15399-0.60169 0.15399-0.53389 0-0.85875-0.36213-0.32204-0.36493-0.32204-0.94946 0-0.60446 0.35308-0.95517 0.35592-0.35355 0.97175-0.35355 1.3475 0 1.3475 1.9018zm-0.55368-0.45335q0-0.45905-0.226-0.74417-0.226-0.28799-0.58474-0.28799-0.36725 0-0.57909 0.24805-0.21189 0.24805-0.21189 0.64438 0 0.40773 0.21189 0.65864 0.21188 0.24805 0.57344 0.24805 0.21468 0 0.40395-0.09693 0.19209-0.0998 0.30225-0.27374 0.11015-0.17678 0.11015-0.39633zm3.4548 0.94091q0 0.79835-0.23444 1.4285-0.23165 0.62727-0.77401 1.3002h-0.54238q0.55367-0.68715 0.79097-1.3201 0.23728-0.63583 0.23728-1.4028 0-0.76413-0.23728-1.3971-0.23729-0.63583-0.79097-1.323h0.54238q0.55084 0.6843 0.77966 1.3059 0.2288 0.62157 0.2288 1.4085z" aria-label="(1,W-9)"/>
   <path d="m211.38 62.579q0 0.78409 0.24012 1.4171 0.24013 0.63298 0.78249 1.3059h-0.53672q-0.54237-0.67289-0.77967-1.303-0.23448-0.63298-0.23448-1.4256 0-0.77839 0.23165-1.4028 0.23164-0.62728 0.78248-1.3116h0.53672q-0.54237 0.67289-0.78249 1.3087-0.24011 0.63298-0.24011 1.4114zm2.4209 1.5112v-0.41343h1.2401v-2.9111q-0.10453 0.22239-0.49718 0.38775-0.38984 0.16536-0.76836 0.16536v-0.42199q0.41808 0 0.78814-0.18532 0.37288-0.18532 0.51977-0.4676h0.46892v3.4329h0.99718v0.41343zm3.7599 1.035 0.47741-1.8875h0.74859l-0.87853 1.8875zm5.6158-1.035h-0.58757q-0.20905-0.78694-0.31921-1.1975-0.10736-0.41058-0.22881-0.95802-0.0819 0.35643-0.15255 0.64438-0.0678 0.28799-0.40396 1.5112h-0.58757l-0.59603-3.8463h0.53389l0.30793 2.3808q0.0452 0.37351 0.0932 0.98653 0.0904-0.3935 0.14972-0.65008 0.0622-0.25663 0.40677-1.5254h0.49435q0.19493 0.72136 0.30509 1.1348 0.113 0.41343 0.25141 1.0407l0.0989-0.98653 0.2938-2.3808h0.5339zm1.5395-1.323v-0.4562h1.5819v0.4562zm5.6186 0.24517q0 0.52463-0.35309 0.82972-0.35028 0.30507-1.0028 0.30507-0.63841 0-0.99999-0.29936-0.35878-0.29936-0.35878-0.82971 0-0.3678 0.22317-0.62442 0.22316-0.25946 0.57062-0.31936v-0.01133q-0.3164-0.07698-0.50847-0.32506-0.19209-0.24805-0.19209-0.5674 0-0.27945 0.15537-0.50752 0.1582-0.22809 0.44351-0.35355 0.28532-0.12546 0.65536-0.12546 0.387 0 0.67514 0.12829 0.28812 0.12546 0.44068 0.35068 0.15255 0.22526 0.15255 0.51322 0 0.32219-0.19491 0.57025-0.19492 0.24805-0.5113 0.31082v0.01133q0.36724 0.05986 0.58474 0.31361 0.22032 0.25092 0.22032 0.63012zm-0.62712-1.8077q0-0.31648-0.19208-0.47616-0.18928-0.16249-0.54802-0.16249-0.34745 0-0.54237 0.16249-0.19208 0.16249-0.19208 0.47616 0 0.31648 0.19492 0.49041 0.19493 0.17394 0.54519 0.17394 0.73447 0 0.73447-0.66434zm0.0989 1.7592q0-0.34214-0.22033-0.52463-0.22032-0.18532-0.61864-0.18532-0.38416 0-0.60452 0.19956-0.21752 0.19673-0.21752 0.52178 0 0.38492 0.21188 0.58735 0.21468 0.19956 0.62711 0.19956 0.41526 0 0.61866-0.19673 0.20339-0.19673 0.20339-0.60161zm3.4096-0.39062q0 0.79835-0.23445 1.4285-0.23164 0.62728-0.77401 1.3002h-0.54238q0.55368-0.68715 0.79096-1.3201 0.23729-0.63583 0.23729-1.4028 0-0.76413-0.23729-1.3971-0.23728-0.63583-0.79096-1.323h0.54238q0.55085 0.6843 0.77966 1.3059 0.22881 0.62157 0.22881 1.4085z" aria-label="(1,W-8)"/>
   <path d="m331.38 22.205q0 0.78409 0.24012 1.4171 0.24013 0.63298 0.78249 1.3059h-0.53673q-0.54237-0.67289-0.77967-1.303-0.23446-0.63298-0.23446-1.4256 0-0.77839 0.23165-1.4028 0.23165-0.62727 0.78249-1.3116h0.53671q-0.54237 0.67289-0.78248 1.3087-0.24012 0.63298-0.24012 1.4114zm5.0932-0.41343q0 0.96372-0.35309 1.4741-0.35028 0.50752-1.0367 0.50752-0.68643 0-1.0311-0.50467-0.34464-0.50752-0.34464-1.4769 0-0.99508 0.33616-1.4883 0.33617-0.49326 1.0565-0.49326 0.70338 0 1.0367 0.49897 0.33616 0.49612 0.33616 1.4826zm-0.51695 0q0-0.82686-0.20057-1.1947-0.19772-0.37066-0.65536-0.37066-0.46893 0-0.67514 0.36496-0.20341 0.36496-0.20341 1.2004 0 0.8126 0.20621 1.189 0.20904 0.37351 0.66101 0.37351 0.44915 0 0.65819-0.38492 0.20905-0.38492 0.20905-1.1776zm-1.1977 0.34215v-0.70996h0.66383v0.70996zm2.8022 2.6174 0.4774-1.8875h0.7486l-0.87853 1.8875zm5.6158-1.035h-0.58757q-0.20905-0.78694-0.3192-1.1975-0.10737-0.41058-0.22881-0.95802-0.0819 0.3564-0.15252 0.64438-0.0678 0.28798-0.40396 1.5112h-0.58756l-0.59608-3.8463h0.53389l0.30793 2.3808q0.0452 0.37351 0.0932 0.98653 0.0904-0.39347 0.14972-0.65008 0.0621-0.25661 0.40678-1.5254h0.49435q0.19492 0.72136 0.30508 1.1348 0.11301 0.41343 0.25141 1.0407l0.0989-0.98653 0.29376-2.3808h0.53389zm1.5395-1.323v-0.4562h1.5819v0.4562zm2.935 1.323v-0.33359q0.1384-0.31078 0.42939-0.62442 0.29376-0.31649 0.7966-0.72136 0.44915-0.36211 0.64689-0.63012 0.19776-0.26802 0.19776-0.51608 0-0.31649-0.19493-0.48756-0.19491-0.17107-0.55649-0.17107-0.32205 0-0.52259 0.17963-0.19773 0.17678-0.23449 0.49897l-0.51977-0.04847q0.0565-0.48471 0.39264-0.76698 0.33617-0.28512 0.88418-0.28512 0.60169 0 0.93785 0.27372 0.33617 0.27372 0.33617 0.77554 0 0.32789-0.21469 0.65579-0.21468 0.32504-0.64123 0.66719-0.58193 0.4676-0.80791 0.69-0.22317 0.21954-0.31637 0.42769h2.0424v0.41628zm5.565-1.5169q0 0.79835-0.23448 1.4285-0.23164 0.62727-0.774 1.3002h-0.54238q0.55368-0.68715 0.79096-1.3201 0.23729-0.63583 0.23729-1.4028 0-0.76413-0.23729-1.3971-0.23728-0.63583-0.79096-1.323h0.54238q0.55083 0.6843 0.77965 1.3059 0.2288 0.62157 0.2288 1.4085z" aria-label="(0,W-2)"/>
  </g>
  <path d="m331.38 62.579q0 0.78402 0.24011 1.4169 0.24013 0.63291 0.78249 1.3057h-0.53672q-0.54237-0.67283-0.77966-1.3029-0.23448-0.63291-0.23448-1.4255 0-0.77831 0.23164-1.4027 0.23165-0.62721 0.78249-1.3114h0.53672q-0.54238 0.67282-0.78249 1.3086-0.24012 0.63291-0.24012 1.4112zm2.4209 1.511v-0.41339h1.2401v-2.9108q-0.10453 0.22239-0.49718 0.38771-0.38984 0.16536-0.76836 0.16536v-0.42193q0.41808 0 0.78813-0.18528 0.37289-0.18532 0.51978-0.46756h0.46893v3.4326h0.99717v0.41339zm3.7599 1.0349 0.47739-1.8873h0.7486l-0.87853 1.8873zm5.6158-1.0349h-0.58757q-0.20905-0.78687-0.31921-1.1974-0.10736-0.41054-0.2288-0.95792-0.0819 0.35635-0.15252 0.64432-0.0678 0.28795-0.40397 1.511h-0.58756l-0.59604-3.8459h0.53389l0.30793 2.3806q0.0452 0.37347 0.0932 0.98644 0.0904-0.39346 0.14972-0.65002 0.0621-0.25659 0.40678-1.5253h0.49435q0.19493 0.72129 0.30509 1.1347 0.113 0.41339 0.2514 1.0406l0.0989-0.98644 0.29376-2.3806h0.5339zm1.5395-1.3228v-0.45615h1.5819v0.45615zm2.935 1.3228v-0.33356q0.13839-0.31078 0.42938-0.62436 0.2938-0.31644 0.7966-0.7213 0.44916-0.36209 0.6469-0.63006 0.19772-0.26796 0.19772-0.51602 0-0.31644-0.19493-0.48751-0.19491-0.17107-0.55649-0.17107-0.32205 0-0.5226 0.17961-0.19772 0.17674-0.23444 0.49892l-0.51978-0.04844q0.0565-0.48466 0.39265-0.76691 0.33616-0.28508 0.88418-0.28508 0.60169 0 0.93785 0.2737 0.33617 0.27366 0.33617 0.77546 0 0.32786-0.21469 0.65572-0.21468 0.32502-0.64124 0.66713-0.58193 0.46756-0.80791 0.68993-0.22317 0.21951-0.31637 0.42764h2.0424v0.41622zm5.565-1.5167q0 0.79827-0.23444 1.4283-0.23164 0.62721-0.77401 1.3h-0.54238q0.55368-0.68708 0.79096-1.32 0.23729-0.63577 0.23729-1.4027 0-0.76405-0.23729-1.397-0.23728-0.63577-0.79096-1.3228h0.54238q0.55084 0.68423 0.77966 1.3057 0.2288 0.62151 0.2288 1.4084z" stroke-width=".40185" aria-label="(1,W-2)"/>
  <g stroke-width=".40187">
   <path d="m371.38 62.579q0 0.7841 0.24012 1.4171 0.24012 0.63298 0.78248 1.3059h-0.53673q-0.54237-0.67289-0.77966-1.303-0.23445-0.63298-0.23445-1.4256 0-0.77839 0.23165-1.4028 0.23164-0.62727 0.78249-1.3116h0.53672q-0.54238 0.6729-0.78249 1.3087-0.24012 0.63297-0.24012 1.4114zm2.4209 1.5112v-0.41343h1.2401v-2.9111q-0.10452 0.22239-0.49717 0.38775-0.38981 0.16536-0.76837 0.16536v-0.42198q0.41808 0 0.78815-0.18532 0.37288-0.18532 0.51976-0.4676h0.46893v3.4329h0.99717v0.41343zm3.7599 1.035 0.4774-1.8875h0.74859l-0.87854 1.8875zm5.6158-1.035h-0.58757q-0.20904-0.78694-0.3192-1.1975-0.10737-0.41058-0.22881-0.95802-0.0819 0.35639-0.15252 0.64438-0.0678 0.28799-0.40395 1.5112h-0.58758l-0.59604-3.8463h0.53389l0.30793 2.3808q0.0452 0.37351 0.0932 0.98653 0.0904-0.3935 0.14972-0.65008 0.0621-0.25663 0.40678-1.5254h0.49435q0.19493 0.72136 0.30508 1.1348 0.113 0.41343 0.25141 1.0407l0.0989-0.98653 0.2938-2.3808h0.5339zm1.5396-1.323v-0.4562h1.5819v0.4562zm2.9718 1.323v-0.41343h1.2401v-2.9111q-0.10452 0.22239-0.49719 0.38775-0.38984 0.16536-0.76836 0.16536v-0.42198q0.41809 0 0.78815-0.18532 0.37288-0.18532 0.51976-0.4676h0.46893v3.4329h0.99718v0.41343zm5.5282-1.5169q0 0.79835-0.23448 1.4285-0.23165 0.62727-0.77401 1.3002h-0.54238q0.55367-0.68715 0.79096-1.3201 0.23729-0.63583 0.23729-1.4028 0-0.76413-0.23729-1.3971-0.23728-0.63583-0.79096-1.323h0.54238q0.55084 0.6843 0.77965 1.3059 0.22881 0.62156 0.22881 1.4085z" aria-label="(1,W-1)"/>
   <path d="m371.38 22.205q0 0.7841 0.24013 1.4171 0.24012 0.63298 0.78248 1.3059h-0.53671q-0.54238-0.67289-0.77967-1.303-0.23445-0.63297-0.23445-1.4256 0-0.77839 0.23165-1.4028 0.23164-0.62727 0.78249-1.3116h0.53672q-0.54237 0.6729-0.78248 1.3087-0.24013 0.63297-0.24013 1.4114zm5.0932-0.41343q0 0.96372-0.35308 1.4741-0.35029 0.50752-1.0367 0.50752t-1.0311-0.50467q-0.34464-0.50752-0.34464-1.4769 0-0.99508 0.33616-1.4883 0.33617-0.49327 1.0565-0.49327 0.70339 0 1.0367 0.49897 0.33617 0.49612 0.33617 1.4826zm-0.51694 0q0-0.82686-0.20057-1.1947-0.19772-0.37068-0.65537-0.37068-0.46892 0-0.67514 0.36494-0.2034 0.36494-0.2034 1.2004 0 0.8126 0.2062 1.189 0.20905 0.3735 0.66102 0.3735 0.44915 0 0.6582-0.38493 0.20904-0.38493 0.20904-1.1776zm-1.1977 0.34213v-0.70996h0.66384v0.70996zm2.8023 2.6174 0.4774-1.8875h0.74859l-0.87853 1.8875zm5.6158-1.035h-0.58757q-0.20904-0.78694-0.31921-1.1975-0.10737-0.41058-0.22881-0.95802-0.0819 0.35638-0.15256 0.64438-0.0678 0.28799-0.40394 1.5112h-0.58758l-0.59604-3.8463h0.5339l0.30793 2.3808q0.0452 0.3735 0.0933 0.98653 0.0904-0.39349 0.14972-0.65008 0.0622-0.25662 0.40678-1.5254h0.49436q0.19492 0.72136 0.30507 1.1348 0.11301 0.41343 0.25141 1.0407l0.0989-0.98653 0.29376-2.3808h0.5339zm1.5396-1.323v-0.4562h1.5819v0.4562zm2.9718 1.323v-0.41343h1.2401v-2.9111q-0.10452 0.22238-0.49718 0.38776-0.38984 0.16537-0.76836 0.16537v-0.42198q0.41809 0 0.78814-0.18532 0.37289-0.18532 0.51977-0.4676h0.46893v3.4329h0.99717v0.41343zm5.5282-1.5169q0 0.79835-0.23448 1.4285-0.23165 0.62727-0.77402 1.3002h-0.54237q0.55367-0.68715 0.79096-1.3201 0.23729-0.63583 0.23729-1.4028 0-0.76413-0.23729-1.3971-0.23728-0.63583-0.79096-1.323h0.54237q0.55085 0.6843 0.77966 1.3059 0.22881 0.62157 0.22881 1.4085z" aria-label="(0,W-1)"/>
   <path d="m11.372 224.08q0 0.78409 0.24011 1.4171 0.24011 0.63297 0.78249 1.3059h-0.53672q-0.54237-0.6729-0.77966-1.303-0.23446-0.63297-0.23446-1.4256 0-0.77839 0.23164-1.4028 0.23164-0.62728 0.78248-1.3116h0.53672q-0.54237 0.67289-0.78249 1.3087-0.24011 0.63297-0.24011 1.4114zm4.4491 1.5112v-1.7763h-1.4746v1.7763h-0.53955v-3.8463h0.53955v1.6138h1.4746v-1.6138h0.53955v3.8463zm1.9435-1.323v-0.4562h1.5819v0.4562zm2.9717 1.323v-0.41343h1.2401v-2.9111q-0.10452 0.22239-0.49717 0.38775-0.38983 0.16537-0.76836 0.16537v-0.42198q0.41808 0 0.78814-0.18532 0.37288-0.18531 0.51977-0.4676h0.46892v3.4329h0.99718v0.41343zm3.7599 1.035 0.4774-1.8875h0.74859l-0.87853 1.8875zm5.8559-2.9596q0 0.96372-0.35311 1.4741-0.35028 0.50753-1.0367 0.50753-0.68644 0-1.0311-0.50468-0.34463-0.50751-0.34463-1.4769 0-0.99508 0.33616-1.4884 0.33616-0.49326 1.0565-0.49326 0.70339 0 1.0367 0.49897 0.33616 0.49611 0.33616 1.4826zm-0.51695 0q0-0.82686-0.20056-1.1947-0.19774-0.37067-0.65537-0.37067-0.46893 0-0.67514 0.36493-0.20339 0.36492-0.20339 1.2004 0 0.8126 0.20622 1.189 0.20904 0.37351 0.66102 0.37351 0.44915 0 0.65819-0.38492 0.20904-0.38492 0.20904-1.1776zm-1.1977 0.34214v-0.70996h0.66384v0.70996zm4.5706 0.0656q0 0.79834-0.23446 1.4285-0.23164 0.62727-0.77401 1.3002h-0.54237q0.55367-0.68715 0.79096-1.3201 0.23729-0.63582 0.23729-1.4028 0-0.76414-0.23729-1.3971-0.23729-0.6358-0.79096-1.323h0.54237q0.55085 0.6843 0.77966 1.3059 0.22881 0.62157 0.22881 1.4085z" aria-label="(H-1,0)"/>
  </g>
  <path d="m327.91 224.08q0 0.78409 0.24013 1.4171 0.24012 0.63298 0.78249 1.3059h-0.53673q-0.54238-0.67289-0.77967-1.303-0.23449-0.63298-0.23449-1.4256 0-0.77839 0.23165-1.4028 0.23164-0.62728 0.7825-1.3116h0.53674q-0.54239 0.67289-0.7825 1.3087-0.24013 0.63298-0.24013 1.4114zm4.4492 1.5112v-1.7763h-1.4746v1.7763h-0.53955v-3.8463h0.53955v1.6138h1.4746v-1.6138h0.53956v3.8463zm1.9435-1.323v-0.4562h1.582v0.4562zm2.9718 1.323v-0.41343h1.2401v-2.9111q-0.10452 0.22238-0.49718 0.38775-0.38985 0.16536-0.76838 0.16536v-0.42196q0.41809 0 0.78815-0.18532 0.37289-0.18532 0.51979-0.46761h0.46894v3.4329h0.99719v0.41343zm3.76 1.035 0.47741-1.8875h0.7486l-0.87855 1.8875zm5.6159-1.035h-0.58759q-0.20904-0.78695-0.3192-1.1975-0.10736-0.41058-0.2288-0.95801-0.0819 0.35642-0.15257 0.64438-0.0678 0.28799-0.40396 1.5112h-0.58758l-0.59606-3.8463h0.53391l0.30793 2.3808q0.0452 0.3735 0.0933 0.98653 0.0904-0.3935 0.14972-0.65009 0.0621-0.25662 0.40679-1.5254h0.49436q0.19492 0.72136 0.30509 1.1348 0.113 0.41342 0.2514 1.0407l0.0988-0.98653 0.29381-2.3808h0.5339zm1.5396-1.323v-0.4562h1.582v0.4562zm2.9351 1.323v-0.3336q0.1384-0.31082 0.42939-0.62443 0.29381-0.31648 0.79663-0.72136 0.44916-0.36213 0.6469-0.63013 0.19772-0.26799 0.19772-0.51607 0-0.31648-0.19492-0.48756-0.19493-0.17107-0.55651-0.17107-0.32205 0-0.5226 0.17961-0.19773 0.17677-0.23445 0.49896l-0.51978-0.0485q0.0565-0.48471 0.39265-0.76699 0.33616-0.28511 0.8842-0.28511 0.6017 0 0.93787 0.27374 0.33616 0.27375 0.33616 0.77554 0 0.32789-0.21468 0.65578-0.21468 0.32507-0.64126 0.6672-0.58193 0.4676-0.80792 0.68999-0.22317 0.21956-0.31641 0.42769h2.0424v0.41628zm5.5651-1.5169q0 0.79834-0.23448 1.4285-0.23165 0.62727-0.77403 1.3002h-0.54238q0.55368-0.68714 0.79098-1.3201 0.23728-0.63583 0.23728-1.4028 0-0.76414-0.23728-1.3971-0.23729-0.63583-0.79098-1.323h0.54238q0.55086 0.68429 0.77968 1.3059 0.2288 0.62157 0.2288 1.4085z" stroke-width=".40188" aria-label="(H-1,W-2)"/>
  <path d="m367.91 224.08q0 0.78409 0.24012 1.4171 0.24013 0.63298 0.78251 1.3059h-0.53675q-0.54238-0.67289-0.77966-1.303-0.23445-0.63298-0.23445-1.4256 0-0.77839 0.23165-1.4028 0.23163-0.62727 0.78249-1.3116h0.53675q-0.54239 0.67288-0.78251 1.3087-0.24013 0.63298-0.24013 1.4114zm4.4492 1.5112v-1.7763h-1.4746v1.7763h-0.53956v-3.8463h0.53956v1.6138h1.4746v-1.6138h0.53956v3.8463zm1.9436-1.323v-0.4562h1.582v0.4562zm2.9718 1.323v-0.41343h1.2401v-2.9111q-0.10453 0.22238-0.49719 0.38775-0.38984 0.16536-0.76838 0.16536v-0.42198q0.41809 0 0.78816-0.18532 0.37288-0.18531 0.51978-0.4676h0.46894v3.4329h0.99719v0.41343zm3.76 1.035 0.47742-1.8875h0.7486l-0.87854 1.8875zm5.616-1.035h-0.58759q-0.20905-0.78694-0.3192-1.1975-0.10737-0.41058-0.22881-0.95802-0.0819 0.35643-0.15252 0.64439-0.0678 0.28799-0.40397 1.5112h-0.58757l-0.59606-3.8463h0.53391l0.30792 2.3808q0.0452 0.3735 0.0932 0.98652 0.0904-0.39349 0.14973-0.65008 0.0622-0.25662 0.40678-1.5254h0.49436q0.19492 0.72136 0.30509 1.1348 0.113 0.41343 0.2514 1.0407l0.0989-0.98652 0.29376-2.3808h0.53391zm1.5396-1.323v-0.4562h1.582v0.4562zm2.9718 1.323v-0.41343h1.2401v-2.9111q-0.10452 0.22238-0.49719 0.38775-0.38985 0.16536-0.76838 0.16536v-0.42198q0.4181 0 0.78816-0.18532 0.37288-0.18531 0.51978-0.4676h0.46894v3.4329h0.99719v0.41343zm5.5284-1.5169q0 0.79835-0.23449 1.4285-0.23163 0.62727-0.77402 1.3002h-0.54239q0.5537-0.68715 0.79098-1.3201 0.23728-0.63583 0.23728-1.4028 0-0.76414-0.23728-1.3971-0.23728-0.63583-0.79098-1.323h0.54239q0.55086 0.68429 0.77968 1.3059 0.2288 0.62157 0.2288 1.4085z" stroke-width=".40188" aria-label="(H-1,W-1)"/>
 </g>
 <g transform="matrix(4.0001 0 0 4.0374 .025781 0)" fill="none" stroke="#f00" stroke-width=".50292">
  <path d="m1 59.672h23.061"/>
  <path d="m1 51.381h23.061"/>
  <path d="m24.019 51.381h3.4119" stroke-dasharray="0.502925, 0.502925"/>
  <path d="m24.019 59.671h3.4119" stroke-dasharray="0.502925, 0.502925"/>
  <path d="m1.2515 51.305v8.35"/>
 </g>
 <g transform="matrix(4.0001 0 0 4.0374 .025781 -40.374)" fill="none" stroke="#f00" stroke-width=".50292">
  <path d="m1 59.672h23.061"/>
  <path d="m1 51.381h23.061"/>
  <path d="m24.019 51.381h3.4119" stroke-dasharray="0.502925, 0.502925"/>
  <path d="m24.019 59.671h3.4119" stroke-dasharray="0.502925, 0.502925"/>
  <path d="m1.2515 51.305v8.35"/>
 </g>
 <g transform="matrix(4.0001 0 0 4.0374 .025781 -161.5)" fill="none" stroke="#f00" stroke-width=".50292">
  <path d="m1 59.672h23.061"/>
  <path d="m1 51.381h23.061"/>
  <path d="m24.019 51.381h3.4119" stroke-dasharray="0.502925, 0.502925"/>
  <path d="m24.019 59.671h3.4119" stroke-dasharray="0.502925, 0.502925"/>
  <path d="m1.2515 51.305v8.35"/>
 </g>
 <g transform="matrix(4.0001 0 0 4.0374 .025781 -201.87)" fill="none" stroke="#f00" stroke-width=".50292">
  <path d="m1 59.672h23.061"/>
  <path d="m1 51.381h23.061"/>
  <path d="m24.019 51.381h3.4119" stroke-dasharray="0.502925, 0.502925"/>
  <path d="m24.019 59.671h3.4119" stroke-dasharray="0.502925, 0.502925"/>
  <path d="m1.2515 51.305v8.35"/>
 </g>
 <g transform="matrix(4.0001 0 0 4.0374 .025781 0)" fill="none" stroke="#f00" stroke-width=".50292">
  <path d="m51 51.401h49"/>
  <path d="m51.251 51.18v8.35"/>
  <path d="m99.742 51.352v8.35"/>
  <path d="m51 59.601h49"/>
 </g>
 <g transform="matrix(4.0001 0 0 4.0374 .025783 -40.374)" fill="none" stroke="#f00" stroke-width=".50292">
  <path d="m51 51.401h49"/>
  <path d="m51.251 51.18v8.35"/>
  <path d="m99.742 51.352v8.35"/>
  <path d="m51 59.601h49"/>
 </g>
 <g transform="matrix(4.0001 0 0 4.0374 .025783 -161.5)" fill="none" stroke="#f00" stroke-width=".50292">
  <path d="m51 51.401h49"/>
  <path d="m51.251 51.18v8.35"/>
  <path d="m99.742 51.352v8.35"/>
  <path d="m51 59.601h49"/>
 </g>
 <g transform="translate(4.8937e-7 -50)">
  <g fill="none" stroke="#f00">
   <g stroke-width="2.0211">
    <path d="m204.03 55.658h196"/>
    <path d="m205.04 54.764v33.713"/>
    <path d="m399 55.46v33.713"/>
    <path d="m204.03 88.765h196"/>
   </g>
   <g stroke-width="3.215">
    <path d="m295.71 274.03-5.6e-4 -205.54"/>
    <path d="m153.43 274.03 142.28-205.54"/>
    <path d="m153.43 274.03 0.81282-205.54"/>
   </g>
  </g>
  <path d="m94.145 68.48-0.8125 205.54 3.2148 0.0117 0.8125-205.54z" color="#000000" fill="#f00" style="-inkscape-stroke:none"/>
  <path d="m95.764 65.41-10.824 10.738 2.2656 2.2832 8.541-8.4746 8.4746 8.541 2.2812-2.2637z" color="#000000" fill="#f00" style="-inkscape-stroke:none"/>
  <path d="m95.362 274.03 58.87-205.54" fill="none" stroke="#f00" stroke-dasharray="3.21498, 3.21498" stroke-width="3.215"/>
 </g>
 <g transform="matrix(4.0001 0 0 4.0374 .025781 0)" fill="none" stroke="#f00" stroke-width=".50292">
  <path d="m37.219 51.401h12.764"/>
  <path d="m37.219 59.601h12.764"/>
  <path d="m33.832 59.601h3.4119" stroke-dasharray="0.502925, 0.502925"/>
  <path d="m49.741 51.208v8.35"/>
  <path d="m33.832 51.401h3.4119" stroke-dasharray="0.502925, 0.502925"/>
 </g>
 <g transform="matrix(4.0001 0 0 4.0374 .025781 -40.374)" fill="none" stroke="#f00" stroke-width=".50292">
  <path d="m37.219 51.401h12.764"/>
  <path d="m37.219 59.601h12.764"/>
  <path d="m33.832 59.601h3.4119" stroke-dasharray="0.502925, 0.502925"/>
  <path d="m49.741 51.208v8.35"/>
  <path d="m33.832 51.401h3.4119" stroke-dasharray="0.502925, 0.502925"/>
 </g>
 <g transform="matrix(4.0001 0 0 4.0374 .025781 -161.5)" fill="none" stroke="#f00" stroke-width=".50292">
  <path d="m37.219 51.401h12.764"/>
  <path d="m37.219 59.601h12.764"/>
  <path d="m33.832 59.601h3.4119" stroke-dasharray="0.502925, 0.502925"/>
  <path d="m49.741 51.208v8.35"/>
  <path d="m33.832 51.401h3.4119" stroke-dasharray="0.502925, 0.502925"/>
 </g>
 <g transform="matrix(4.0001 0 0 4.0374 .025781 -201.87)" fill="none" stroke="#f00" stroke-width=".50292">
  <path d="m37.219 51.401h12.764"/>
  <path d="m37.219 59.601h12.764"/>
  <path d="m33.832 59.601h3.4119" stroke-dasharray="0.502925, 0.502925"/>
  <path d="m49.741 51.208v8.35"/>
  <path d="m33.832 51.401h3.4119" stroke-dasharray="0.502925, 0.502925"/>
 </g>
 <path d="m224.61 231.1v2.0098h154.07v-2.0098z" color="#000000" fill="#0003bc" style="-inkscape-stroke:none"/>
 <path d="m374.83 226.71-1.1367 1.1367 4.2539 4.2539-4.2539 4.2539 1.1367 1.1367 5.3906-5.3906z" color="#000000" fill="#0003bc" style="-inkscape-stroke:none"/>
 <path d="m224.61 190.72v2.0098h154.07v-2.0098z" color="#000000" fill="#0003bc" style="-inkscape-stroke:none"/>
 <path d="m374.83 186.34-1.1367 1.1367 4.2559 4.2539-4.2559 4.2559 1.1367 1.1367 5.3906-5.3926z" color="#000000" fill="#0003bc" style="-inkscape-stroke:none"/>
 <path d="m224.61 69.6v2.0098h154.07v-2.0098z" color="#000000" fill="#0003bc" style="-inkscape-stroke:none"/>
 <path d="m374.83 65.213-1.1367 1.1367 4.2559 4.2539-4.2559 4.2559 1.1367 1.1367 5.3906-5.3926z" color="#000000" fill="#0003bc" style="-inkscape-stroke:none"/>
 <path d="m224.61 29.225v2.0098h154.07v-2.0098z" color="#000000" fill="#0003bc" style="-inkscape-stroke:none"/>
 <path d="m374.83 24.84-1.1367 1.1367 4.2559 4.2539-4.2559 4.2539 1.1367 1.1367 5.3906-5.3906z" color="#000000" fill="#0003bc" style="-inkscape-stroke:none"/>
</svg>
