<?xml version="1.0" encoding="UTF-8"?>
<!-- Created with Inkscape (http://www.inkscape.org/) -->
<svg width="32mm" height="32mm" version="1.1" viewBox="0 0 32 32" xml:space="preserve" xmlns="http://www.w3.org/2000/svg"><g><g fill="#003296"><path d="m20.945 9.6927 1.1733 0.01623 0.026429 1.2911h-1.1997z"/><path d="m21.945 10.717 3.7075 0.05868 0.15474-0.8808 1.0033-0.016807-0.01177-0.87781h1.1463v3h-1v1h-4v-1h-1z"/><path d="m21.149 10 0.055831-1.1878-1.2603-1.0778-10 0.012185-1 0.84524-1.27 1.1841 0.057848 10.719 1.2121-0.49503v-8h1v-1h1v-1z"/><path d="m4.9449 26v-1.2392l1.1389 0.08776 0.15252 1.1515z"/><path d="m7.0831 25.839-1.1382-0.05007v1.2111h1.1751z"/><path d="m6.9449 28h1v1h16v-1h1v-1h1v-1h1v-1h1v-3h-1.9706l-19.029 4.6532z"/></g><path d="m21.945 11h4v-1h1v-3h-1v-1h-1v-1h-1v-1h-1v-1h-16v1h-1v1h-1v1h-1v2h-1v14h1v2h1v1h1v1h1v1h16v-1h1v-1h1v-1h1v-1h1v-3h-1v-1h-4v1h-1v1h-1v1h-10v-1h-1v-1h-1v-10h1v-1h1v-1h10v1h1v1h1z" fill="#0041c3"/></g></svg>
