<?xml version="1.0" encoding="UTF-8"?>
<svg width="80" height="80" version="1.1" viewBox="0 0 80 80" xmlns="http://www.w3.org/2000/svg" xmlns:cc="http://creativecommons.org/ns#" xmlns:dc="http://purl.org/dc/elements/1.1/" xmlns:rdf="http://www.w3.org/1999/02/22-rdf-syntax-ns#">
 <metadata>
  <rdf:RDF>
   <cc:Work rdf:about="">
    <dc:format>image/svg+xml</dc:format>
    <dc:type rdf:resource="http://purl.org/dc/dcmitype/StillImage"/>
   </cc:Work>
  </rdf:RDF>
 </metadata>
 <g transform="translate(210 -414.59)">
  <path class="st0" d="m-143.25 487.96c-37.376-45.16-18.688-22.58 0 0zm-17.694-49.046c3.1042 0.31042 3.725 1.8625 4.0354 3.4146 0.62083 2.4834 0.62083 20.177 0 23.281-0.31042 2.1729-1.8625 3.725-3.725 4.0354-0.93125 0-2.4833 0.31043-3.1042 0.31043v17.694c1.2417 0 4.3458 0 7.1396-0.31042 6.5187-0.93125 11.796-4.6562 13.658-12.727 1.2417-5.5875 1.2417-32.594 0-38.802-1.5521-6.5188-5.5875-12.106-12.417-13.658-6.2083-1.2417-22.35-1.2417-29.179 0-4.9667 0.93125-10.865 5.5875-12.417 13.348-1.2417 7.1396-1.5521 32.283 0 39.112 2.1729 9.0021 10.244 11.796 13.038 12.106 3.1042 0.31042 5.2771 0.31042 6.5188 0.31042v-17.694c-1.2417 0-4.6562 0.31042-5.5875-2.7938-0.62083-1.8625-0.62083-19.246-0.31042-23.592 0.31042-2.1729 1.2417-3.4146 3.4146-3.725 4.3458-0.93125 14.9-0.93125 18.935-0.31042z" fill="#003296"/>
 </g>
</svg>
